<?xml version="1.0" encoding="utf-8"?>
<!-- Generator: Adobe Illustrator 25.4.1, SVG Export Plug-In . SVG Version: 6.00 Build 0)  -->
<svg version="1.1" id="Layer_1" xmlns="http://www.w3.org/2000/svg" xmlns:xlink="http://www.w3.org/1999/xlink" x="0px" y="0px"
	 width="145.4px" height="173px" viewBox="0 0 145.4 173" style="enable-background:new 0 0 145.4 173;" xml:space="preserve">
<style type="text/css">
	.st0{fill:#8BB8EE;}
	.st1{clip-path:url(#SVGID_00000109746662906655850810000017099792436940238767_);fill:none;stroke:#A9C8F2;stroke-width:0.822;}
	.st2{clip-path:url(#SVGID_00000149349587796571136530000009265907255343551933_);fill:#FFFFFF;}
	.st3{clip-path:url(#SVGID_00000149349587796571136530000009265907255343551933_);fill:none;stroke:#FFFFFF;stroke-width:0.904;}
	.st4{clip-path:url(#SVGID_00000149349587796571136530000009265907255343551933_);fill:#434867;}
</style>
<rect class="st0" width="145.4" height="173"/>
<g>
	<defs>
		<rect id="SVGID_1_" width="145.4" height="173"/>
	</defs>
	<clipPath id="SVGID_00000052800773865723198750000013898861772872160959_">
		<use xlink:href="#SVGID_1_"  style="overflow:visible;"/>
	</clipPath>
	
		<path style="clip-path:url(#SVGID_00000052800773865723198750000013898861772872160959_);fill:none;stroke:#A9C8F2;stroke-width:0.822;" d="
		M-35.1-9.7c0.3,0.1,0.7,0.1,1,0.1c3.4,0,6-2.8,6.2-6.2c0-0.5,0.1-0.6,0.1-1.1h4.2c2.4-4.5,7.4-8,12.8-8c5.7,0,10.5,3.3,12.9,8.1
		l3.8,0c-0.1,0.5-0.2,1-0.2,1.6c0,3.4,2.8,6.2,6.2,6.2c0.4,0,0.7,0,1.1-0.1l0,4.4c4.5,2.4,7.7,7.3,7.7,12.8c0,5.6-3.1,10.4-7.8,12.7
		v4.1c-0.3,0-0.8,0-1,0c-3.4,0-6.2,2.8-6.2,6.2c0,0.6,0,0.8,0.2,1.3l-3.8,0c-2.4,4.6-7.5,8.3-13.1,8.3c-5.7,0-10.7-3.4-13-8.3
		l-4-0.1c0.2-0.6,0.2-1.2,0.2-1.8c0-3.4-2.8-6.2-6.2-6.2c-0.3,0-0.7,0-1,0.1l0-3.7c-4.9-2.3-8.1-7.2-8.1-12.9
		c0-5.6,3.4-10.5,8.1-12.8L-35.1-9.7z"/>
	
		<path style="clip-path:url(#SVGID_00000052800773865723198750000013898861772872160959_);fill:none;stroke:#A9C8F2;stroke-width:0.822;" d="
		M-35.1,121.1c0.3,0.1,0.7,0.1,1,0.1c3.4,0,6-2.8,6.2-6.2c0-0.5,0.1-0.6,0.1-1.1h4.2c2.4-4.5,7.4-8,12.8-8c5.7,0,10.5,3.3,12.9,8.1
		l3.8,0c-0.1,0.5-0.2,1-0.2,1.6c0,3.4,2.8,6.2,6.2,6.2c0.4,0,0.7,0,1.1-0.1l0,4.4c4.5,2.4,7.7,7.3,7.7,12.8c0,5.6-3.1,10.4-7.8,12.7
		v4.1c-0.3,0-0.8,0-1,0c-3.4,0-6.2,2.8-6.2,6.2c0,0.6,0,0.8,0.2,1.3l-3.8,0c-2.4,4.6-7.5,8.3-13.1,8.3c-5.7,0-10.7-3.4-13-8.3
		l-4-0.1c0.2-0.6,0.2-1.2,0.2-1.8c0-3.4-2.8-6.2-6.2-6.2c-0.3,0-0.7,0-1,0.1l0-3.7c-4.9-2.3-8.1-7.2-8.1-12.9
		c0-5.6,3.4-10.5,8.1-12.8L-35.1,121.1z"/>
	
		<path style="clip-path:url(#SVGID_00000052800773865723198750000013898861772872160959_);fill:none;stroke:#A9C8F2;stroke-width:0.822;" d="
		M-35.1,55.7c0.3,0.1,0.7,0.1,1,0.1c3.4,0,6-2.8,6.2-6.2c0-0.5,0.1-0.6,0.1-1.1h4.2c2.4-4.5,7.4-8,12.8-8c5.7,0,10.5,3.3,12.9,8.1
		l3.8,0c-0.1,0.5-0.2,1-0.2,1.6c0,3.4,2.8,6.2,6.2,6.2c0.4,0,0.7,0,1.1-0.1l0,4.4c4.5,2.4,7.7,7.3,7.7,12.8c0,5.6-3.1,10.4-7.8,12.7
		v4.1c-0.3,0-0.8,0-1,0c-3.4,0-6.2,2.8-6.2,6.2c0,0.6,0,0.8,0.2,1.3l-3.8,0c-2.4,4.6-7.5,8.3-13.1,8.3c-5.7,0-10.7-3.4-13-8.3
		l-4-0.1c0.2-0.6,0.2-1.2,0.2-1.8c0-3.4-2.8-6.2-6.2-6.2c-0.3,0-0.7,0-1,0.1l0-3.7c-4.9-2.3-8.1-7.2-8.1-12.9
		c0-5.6,3.4-10.5,8.1-12.8L-35.1,55.7z"/>
	
		<path style="clip-path:url(#SVGID_00000052800773865723198750000013898861772872160959_);fill:none;stroke:#A9C8F2;stroke-width:0.822;" d="
		M98.4-9.7c0.3,0.1,0.7,0.1,1,0.1c3.4,0,6-2.8,6.2-6.2c0-0.5,0.1-0.6,0.1-1.1h4.2c2.4-4.5,7.4-8,12.8-8c5.7,0,10.5,3.3,12.9,8.1
		l3.8,0c-0.1,0.5-0.2,1-0.2,1.6c0,3.4,2.8,6.2,6.2,6.2c0.4,0,0.7,0,1.1-0.1l0,4.4c4.5,2.4,7.7,7.3,7.7,12.8c0,5.6-3.1,10.4-7.8,12.7
		v4.1c-0.3,0-0.8,0-1,0c-3.4,0-6.2,2.8-6.2,6.2c0,0.6,0,0.8,0.2,1.3l-3.8,0c-2.4,4.6-7.5,8.3-13.1,8.3c-5.7,0-10.7-3.4-13-8.3
		l-4-0.1c0.2-0.6,0.2-1.2,0.2-1.8c0-3.4-2.8-6.2-6.2-6.2c-0.3,0-0.7,0-1,0.1l0-3.7c-4.9-2.3-8.1-7.2-8.1-12.9
		c0-5.6,3.4-10.5,8.1-12.8L98.4-9.7z"/>
	
		<path style="clip-path:url(#SVGID_00000052800773865723198750000013898861772872160959_);fill:none;stroke:#A9C8F2;stroke-width:0.822;" d="
		M98.4,121.1c0.3,0.1,0.7,0.1,1,0.1c3.4,0,6-2.8,6.2-6.2c0-0.5,0.1-0.6,0.1-1.1h4.2c2.4-4.5,7.4-8,12.8-8c5.7,0,10.5,3.3,12.9,8.1
		l3.8,0c-0.1,0.5-0.2,1-0.2,1.6c0,3.4,2.8,6.2,6.2,6.2c0.4,0,0.7,0,1.1-0.1l0,4.4c4.5,2.4,7.7,7.3,7.7,12.8c0,5.6-3.1,10.4-7.8,12.7
		v4.1c-0.3,0-0.8,0-1,0c-3.4,0-6.2,2.8-6.2,6.2c0,0.6,0,0.8,0.2,1.3l-3.8,0c-2.4,4.6-7.5,8.3-13.1,8.3c-5.7,0-10.7-3.4-13-8.3
		l-4-0.1c0.2-0.6,0.2-1.2,0.2-1.8c0-3.4-2.8-6.2-6.2-6.2c-0.3,0-0.7,0-1,0.1l0-3.7c-4.9-2.3-8.1-7.2-8.1-12.9
		c0-5.6,3.4-10.5,8.1-12.8L98.4,121.1z"/>
	
		<path style="clip-path:url(#SVGID_00000052800773865723198750000013898861772872160959_);fill:none;stroke:#A9C8F2;stroke-width:0.822;" d="
		M98.4,55.7c0.3,0.1,0.7,0.1,1,0.1c3.4,0,6-2.8,6.2-6.2c0-0.5,0.1-0.6,0.1-1.1h4.2c2.4-4.5,7.4-8,12.8-8c5.7,0,10.5,3.3,12.9,8.1
		l3.8,0c-0.1,0.5-0.2,1-0.2,1.6c0,3.4,2.8,6.2,6.2,6.2c0.4,0,0.7,0,1.1-0.1l0,4.4c4.5,2.4,7.7,7.3,7.7,12.8c0,5.6-3.1,10.4-7.8,12.7
		v4.1c-0.3,0-0.8,0-1,0c-3.4,0-6.2,2.8-6.2,6.2c0,0.6,0,0.8,0.2,1.3l-3.8,0c-2.4,4.6-7.5,8.3-13.1,8.3c-5.7,0-10.7-3.4-13-8.3
		l-4-0.1c0.2-0.6,0.2-1.2,0.2-1.8c0-3.4-2.8-6.2-6.2-6.2c-0.3,0-0.7,0-1,0.1l0-3.7c-4.9-2.3-8.1-7.2-8.1-12.9
		c0-5.6,3.4-10.5,8.1-12.8L98.4,55.7z"/>
	
		<path style="clip-path:url(#SVGID_00000052800773865723198750000013898861772872160959_);fill:none;stroke:#A9C8F2;stroke-width:0.822;" d="
		M-1.3-9.7c0.3,0.1,0.7,0.1,1,0.1c3.4,0,6-2.8,6.2-6.2c0-0.5,0.1-0.6,0.1-1.1h4.2c2.4-4.5,7.4-8,12.8-8c5.7,0,10.5,3.3,12.9,8.1
		l3.8,0c-0.1,0.5-0.2,1-0.2,1.6c0,3.4,2.8,6.2,6.2,6.2c0.4,0,0.7,0,1.1-0.1l0,4.4c4.5,2.4,7.7,7.3,7.7,12.8c0,5.6-3.1,10.4-7.8,12.7
		v4.1c-0.3,0-0.8,0-1,0c-3.4,0-6.2,2.8-6.2,6.2c0,0.6,0,0.8,0.2,1.3l-3.8,0c-2.4,4.6-7.5,8.3-13.1,8.3c-5.7,0-10.7-3.4-13-8.3
		l-4-0.1c0.2-0.6,0.2-1.2,0.2-1.8c0-3.4-2.8-6.2-6.2-6.2c-0.3,0-0.7,0-1,0.1l0-3.7c-4.9-2.3-8.1-7.2-8.1-12.9
		C-9.4,2-6.1-2.9-1.4-5.2L-1.3-9.7z"/>
	
		<path style="clip-path:url(#SVGID_00000052800773865723198750000013898861772872160959_);fill:none;stroke:#A9C8F2;stroke-width:0.822;" d="
		M-1.3,121.1c0.3,0.1,0.7,0.1,1,0.1c3.4,0,6-2.8,6.2-6.2c0-0.5,0.1-0.6,0.1-1.1h4.2c2.4-4.5,7.4-8,12.8-8c5.7,0,10.5,3.3,12.9,8.1
		l3.8,0c-0.1,0.5-0.2,1-0.2,1.6c0,3.4,2.8,6.2,6.2,6.2c0.4,0,0.7,0,1.1-0.1l0,4.4c4.5,2.4,7.7,7.3,7.7,12.8c0,5.6-3.1,10.4-7.8,12.7
		v4.1c-0.3,0-0.8,0-1,0c-3.4,0-6.2,2.8-6.2,6.2c0,0.6,0,0.8,0.2,1.3l-3.8,0c-2.4,4.6-7.5,8.3-13.1,8.3c-5.7,0-10.7-3.4-13-8.3
		l-4-0.1c0.2-0.6,0.2-1.2,0.2-1.8c0-3.4-2.8-6.2-6.2-6.2c-0.3,0-0.7,0-1,0.1l0-3.7c-4.9-2.3-8.1-7.2-8.1-12.9
		c0-5.6,3.4-10.5,8.1-12.8L-1.3,121.1z"/>
	
		<path style="clip-path:url(#SVGID_00000052800773865723198750000013898861772872160959_);fill:none;stroke:#A9C8F2;stroke-width:0.822;" d="
		M-1.3,55.7c0.3,0.1,0.7,0.1,1,0.1c3.4,0,6-2.8,6.2-6.2c0-0.5,0.1-0.6,0.1-1.1h4.2c2.4-4.5,7.4-8,12.8-8c5.7,0,10.5,3.3,12.9,8.1
		l3.8,0c-0.1,0.5-0.2,1-0.2,1.6c0,3.4,2.8,6.2,6.2,6.2c0.4,0,0.7,0,1.1-0.1l0,4.4c4.5,2.4,7.7,7.3,7.7,12.8c0,5.6-3.1,10.4-7.8,12.7
		v4.1c-0.3,0-0.8,0-1,0c-3.4,0-6.2,2.8-6.2,6.2c0,0.6,0,0.8,0.2,1.3l-3.8,0c-2.4,4.6-7.5,8.3-13.1,8.3c-5.7,0-10.7-3.4-13-8.3
		l-4-0.1c0.2-0.6,0.2-1.2,0.2-1.8c0-3.4-2.8-6.2-6.2-6.2c-0.3,0-0.7,0-1,0.1l0-3.7c-4.9-2.3-8.1-7.2-8.1-12.9
		c0-5.6,3.4-10.5,8.1-12.8L-1.3,55.7z"/>
	
		<path style="clip-path:url(#SVGID_00000052800773865723198750000013898861772872160959_);fill:none;stroke:#A9C8F2;stroke-width:0.822;" d="
		M132.2-9.7c0.3,0.1,0.7,0.1,1,0.1c3.4,0,6-2.8,6.2-6.2c0-0.5,0.1-0.6,0.1-1.1h4.2c2.4-4.5,7.4-8,12.8-8c5.7,0,10.5,3.3,12.9,8.1
		l3.8,0c-0.1,0.5-0.2,1-0.2,1.6c0,3.4,2.8,6.2,6.2,6.2c0.4,0,0.7,0,1.1-0.1l0,4.4c4.5,2.4,7.7,7.3,7.7,12.8c0,5.6-3.1,10.4-7.8,12.7
		v4.1c-0.3,0-0.8,0-1,0c-3.4,0-6.2,2.8-6.2,6.2c0,0.6,0,0.8,0.2,1.3l-3.8,0c-2.4,4.6-7.5,8.3-13.1,8.3c-5.7,0-10.7-3.4-13-8.3
		l-4-0.1c0.2-0.6,0.2-1.2,0.2-1.8c0-3.4-2.8-6.2-6.2-6.2c-0.3,0-0.7,0-1,0.1l0-3.7c-4.9-2.3-8.1-7.2-8.1-12.9
		c0-5.6,3.4-10.5,8.1-12.8L132.2-9.7z"/>
	
		<path style="clip-path:url(#SVGID_00000052800773865723198750000013898861772872160959_);fill:none;stroke:#A9C8F2;stroke-width:0.822;" d="
		M132.2,121.1c0.3,0.1,0.7,0.1,1,0.1c3.4,0,6-2.8,6.2-6.2c0-0.5,0.1-0.6,0.1-1.1h4.2c2.4-4.5,7.4-8,12.8-8c5.7,0,10.5,3.3,12.9,8.1
		l3.8,0c-0.1,0.5-0.2,1-0.2,1.6c0,3.4,2.8,6.2,6.2,6.2c0.4,0,0.7,0,1.1-0.1l0,4.4c4.5,2.4,7.7,7.3,7.7,12.8c0,5.6-3.1,10.4-7.8,12.7
		v4.1c-0.3,0-0.8,0-1,0c-3.4,0-6.2,2.8-6.2,6.2c0,0.6,0,0.8,0.2,1.3l-3.8,0c-2.4,4.6-7.5,8.3-13.1,8.3c-5.7,0-10.7-3.4-13-8.3
		l-4-0.1c0.2-0.6,0.2-1.2,0.2-1.8c0-3.4-2.8-6.2-6.2-6.2c-0.3,0-0.7,0-1,0.1l0-3.7c-4.9-2.3-8.1-7.2-8.1-12.9
		c0-5.6,3.4-10.5,8.1-12.8L132.2,121.1z"/>
	
		<path style="clip-path:url(#SVGID_00000052800773865723198750000013898861772872160959_);fill:none;stroke:#A9C8F2;stroke-width:0.822;" d="
		M132.2,55.7c0.3,0.1,0.7,0.1,1,0.1c3.4,0,6-2.8,6.2-6.2c0-0.5,0.1-0.6,0.1-1.1h4.2c2.4-4.5,7.4-8,12.8-8c5.7,0,10.5,3.3,12.9,8.1
		l3.8,0c-0.1,0.5-0.2,1-0.2,1.6c0,3.4,2.8,6.2,6.2,6.2c0.4,0,0.7,0,1.1-0.1l0,4.4c4.5,2.4,7.7,7.3,7.7,12.8c0,5.6-3.1,10.4-7.8,12.7
		v4.1c-0.3,0-0.8,0-1,0c-3.4,0-6.2,2.8-6.2,6.2c0,0.6,0,0.8,0.2,1.3l-3.8,0c-2.4,4.6-7.5,8.3-13.1,8.3c-5.7,0-10.7-3.4-13-8.3
		l-4-0.1c0.2-0.6,0.2-1.2,0.2-1.8c0-3.4-2.8-6.2-6.2-6.2c-0.3,0-0.7,0-1,0.1l0-3.7c-4.9-2.3-8.1-7.2-8.1-12.9
		c0-5.6,3.4-10.5,8.1-12.8L132.2,55.7z"/>
	
		<path style="clip-path:url(#SVGID_00000052800773865723198750000013898861772872160959_);fill:none;stroke:#A9C8F2;stroke-width:0.822;" d="
		M32.2-9.7c0.3,0.1,0.7,0.1,1,0.1c3.4,0,6-2.8,6.2-6.2c0-0.5,0.1-0.6,0.1-1.1h4.2c2.4-4.5,7.4-8,12.8-8c5.7,0,10.5,3.3,12.9,8.1
		l3.8,0c-0.1,0.5-0.2,1-0.2,1.6c0,3.4,2.8,6.2,6.2,6.2c0.4,0,0.7,0,1.1-0.1l0,4.4C84.7-2.4,88,2.5,88,7.9c0,5.6-3.1,10.4-7.8,12.7
		v4.1c-0.3,0-0.8,0-1,0c-3.4,0-6.2,2.8-6.2,6.2c0,0.6,0,0.8,0.2,1.3l-3.8,0c-2.4,4.6-7.5,8.3-13.1,8.3c-5.7,0-10.7-3.4-13-8.3
		l-4-0.1c0.2-0.6,0.2-1.2,0.2-1.8c0-3.4-2.8-6.2-6.2-6.2c-0.3,0-0.7,0-1,0.1l0-3.7c-4.9-2.3-8.1-7.2-8.1-12.9
		c0-5.6,3.4-10.5,8.1-12.8L32.2-9.7z"/>
	
		<path style="clip-path:url(#SVGID_00000052800773865723198750000013898861772872160959_);fill:none;stroke:#A9C8F2;stroke-width:0.822;" d="
		M32.2,121.1c0.3,0.1,0.7,0.1,1,0.1c3.4,0,6-2.8,6.2-6.2c0-0.5,0.1-0.6,0.1-1.1h4.2c2.4-4.5,7.4-8,12.8-8c5.7,0,10.5,3.3,12.9,8.1
		l3.8,0c-0.1,0.5-0.2,1-0.2,1.6c0,3.4,2.8,6.2,6.2,6.2c0.4,0,0.7,0,1.1-0.1l0,4.4c4.5,2.4,7.7,7.3,7.7,12.8c0,5.6-3.1,10.4-7.8,12.7
		v4.1c-0.3,0-0.8,0-1,0c-3.4,0-6.2,2.8-6.2,6.2c0,0.6,0,0.8,0.2,1.3l-3.8,0c-2.4,4.6-7.5,8.3-13.1,8.3c-5.7,0-10.7-3.4-13-8.3
		l-4-0.1c0.2-0.6,0.2-1.2,0.2-1.8c0-3.4-2.8-6.2-6.2-6.2c-0.3,0-0.7,0-1,0.1l0-3.7c-4.9-2.3-8.1-7.2-8.1-12.9
		c0-5.6,3.4-10.5,8.1-12.8L32.2,121.1z"/>
	
		<path style="clip-path:url(#SVGID_00000052800773865723198750000013898861772872160959_);fill:none;stroke:#A9C8F2;stroke-width:0.822;" d="
		M32.2,55.7c0.3,0.1,0.7,0.1,1,0.1c3.4,0,6-2.8,6.2-6.2c0-0.5,0.1-0.6,0.1-1.1h4.2c2.4-4.5,7.4-8,12.8-8c5.7,0,10.5,3.3,12.9,8.1
		l3.8,0c-0.1,0.5-0.2,1-0.2,1.6c0,3.4,2.8,6.2,6.2,6.2c0.4,0,0.7,0,1.1-0.1l0,4.4C84.7,63,88,67.9,88,73.4c0,5.6-3.1,10.4-7.8,12.7
		v4.1c-0.3,0-0.8,0-1,0c-3.4,0-6.2,2.8-6.2,6.2c0,0.6,0,0.8,0.2,1.3l-3.8,0c-2.4,4.6-7.5,8.3-13.1,8.3c-5.7,0-10.7-3.4-13-8.3
		l-4-0.1c0.2-0.6,0.2-1.2,0.2-1.8c0-3.4-2.8-6.2-6.2-6.2c-0.3,0-0.7,0-1,0.1l0-3.7c-4.9-2.3-8.1-7.2-8.1-12.9
		c0-5.6,3.4-10.5,8.1-12.8L32.2,55.7z"/>
	
		<path style="clip-path:url(#SVGID_00000052800773865723198750000013898861772872160959_);fill:none;stroke:#A9C8F2;stroke-width:0.822;" d="
		M65.5-9.7c0.3,0.1,0.7,0.1,1,0.1c3.4,0,6-2.8,6.2-6.2c0-0.5,0.1-0.6,0.1-1.1h4.2c2.4-4.5,7.4-8,12.8-8c5.7,0,10.5,3.3,12.9,8.1
		l3.8,0c-0.1,0.5-0.2,1-0.2,1.6c0,3.4,2.8,6.2,6.2,6.2c0.4,0,0.7,0,1.1-0.1l0,4.4c4.5,2.4,7.7,7.3,7.7,12.8c0,5.6-3.1,10.4-7.8,12.7
		v4.1c-0.3,0-0.8,0-1,0c-3.4,0-6.2,2.8-6.2,6.2c0,0.6,0,0.8,0.2,1.3l-3.8,0c-2.4,4.6-7.5,8.3-13.1,8.3c-5.7,0-10.7-3.4-13-8.3
		l-4-0.1c0.2-0.6,0.2-1.2,0.2-1.8c0-3.4-2.8-6.2-6.2-6.2c-0.3,0-0.7,0-1,0.1l0-3.7c-4.9-2.3-8.1-7.2-8.1-12.9
		c0-5.6,3.4-10.5,8.1-12.8L65.5-9.7z"/>
	
		<path style="clip-path:url(#SVGID_00000052800773865723198750000013898861772872160959_);fill:none;stroke:#A9C8F2;stroke-width:0.822;" d="
		M65.5,121.1c0.3,0.1,0.7,0.1,1,0.1c3.4,0,6-2.8,6.2-6.2c0-0.5,0.1-0.6,0.1-1.1h4.2c2.4-4.5,7.4-8,12.8-8c5.7,0,10.5,3.3,12.9,8.1
		l3.8,0c-0.1,0.5-0.2,1-0.2,1.6c0,3.4,2.8,6.2,6.2,6.2c0.4,0,0.7,0,1.1-0.1l0,4.4c4.5,2.4,7.7,7.3,7.7,12.8c0,5.6-3.1,10.4-7.8,12.7
		v4.1c-0.3,0-0.8,0-1,0c-3.4,0-6.2,2.8-6.2,6.2c0,0.6,0,0.8,0.2,1.3l-3.8,0c-2.4,4.6-7.5,8.3-13.1,8.3c-5.7,0-10.7-3.4-13-8.3
		l-4-0.1c0.2-0.6,0.2-1.2,0.2-1.8c0-3.4-2.8-6.2-6.2-6.2c-0.3,0-0.7,0-1,0.1l0-3.7c-4.9-2.3-8.1-7.2-8.1-12.9
		c0-5.6,3.4-10.5,8.1-12.8L65.5,121.1z"/>
	
		<path style="clip-path:url(#SVGID_00000052800773865723198750000013898861772872160959_);fill:none;stroke:#A9C8F2;stroke-width:0.822;" d="
		M65.5,55.7c0.3,0.1,0.7,0.1,1,0.1c3.4,0,6-2.8,6.2-6.2c0-0.5,0.1-0.6,0.1-1.1h4.2c2.4-4.5,7.4-8,12.8-8c5.7,0,10.5,3.3,12.9,8.1
		l3.8,0c-0.1,0.5-0.2,1-0.2,1.6c0,3.4,2.8,6.2,6.2,6.2c0.4,0,0.7,0,1.1-0.1l0,4.4c4.5,2.4,7.7,7.3,7.7,12.8c0,5.6-3.1,10.4-7.8,12.7
		v4.1c-0.3,0-0.8,0-1,0c-3.4,0-6.2,2.8-6.2,6.2c0,0.6,0,0.8,0.2,1.3l-3.8,0c-2.4,4.6-7.5,8.3-13.1,8.3c-5.7,0-10.7-3.4-13-8.3
		l-4-0.1c0.2-0.6,0.2-1.2,0.2-1.8c0-3.4-2.8-6.2-6.2-6.2c-0.3,0-0.7,0-1,0.1l0-3.7c-4.9-2.3-8.1-7.2-8.1-12.9
		c0-5.6,3.4-10.5,8.1-12.8L65.5,55.7z"/>
</g>
<g>
	<defs>
		<rect id="SVGID_00000064346592672266563100000007761128483545681582_" width="145.4" height="173"/>
	</defs>
	<clipPath id="SVGID_00000056386975255053173940000007577277379598521738_">
		<use xlink:href="#SVGID_00000064346592672266563100000007761128483545681582_"  style="overflow:visible;"/>
	</clipPath>
	<path style="clip-path:url(#SVGID_00000056386975255053173940000007577277379598521738_);fill:#FFFFFF;" d="M41.6,59.9
		c0.1,0.6,0.1,1.2,0.1,1.8c0,6.2-5.2,10.9-11.2,11.2c-0.9,0-1.1,0.1-2,0.1v7.6C20.3,85,14,94,14,104c0,10.2,6,19.1,14.6,23.3l0,6.8
		c0.9-0.3,1.9-0.3,2.9-0.3c6.2,0,11.2,5,11.2,11.2c0,0.7-0.1,1.3-0.2,2l7.9,0c4.4,8.1,13.3,14,23.1,14c10.1,0,18.8-5.5,23.1-14h7.4
		c-0.1-0.5,0-1.4,0-1.9c0-6.2,5-11.2,11.2-11.2c1.1,0,1.4,0,2.4,0.3l0-7c8.3-4.3,15-13.6,15-23.7c0-10.4-6.1-19.4-15-23.5l-0.1-7.3
		c-1,0.3-2.2,0.3-3.3,0.3c-6.2,0-11.2-5-11.2-11.2c0-0.6,0.1-1.2,0.1-1.8l-6.7,0c-4.1-8.8-13-14.7-23.4-14.7
		c-10.2,0-19,6.1-23.3,14.6L41.6,59.9z"/>
	
		<path style="clip-path:url(#SVGID_00000056386975255053173940000007577277379598521738_);fill:none;stroke:#FFFFFF;stroke-width:0.904;" d="
		M41.6,59.9c0.1,0.6,0.1,1.2,0.1,1.8c0,6.2-5.2,10.9-11.2,11.2c-0.9,0-1.1,0.1-2,0.1v7.6C20.3,85,14,94,14,104
		c0,10.2,6,19.1,14.6,23.3l0,6.8c0.9-0.3,1.9-0.3,2.9-0.3c6.2,0,11.2,5,11.2,11.2c0,0.7-0.1,1.3-0.2,2l7.9,0
		c4.4,8.1,13.3,14,23.1,14c10.1,0,18.8-5.5,23.1-14h7.4c-0.1-0.5,0-1.4,0-1.9c0-6.2,5-11.2,11.2-11.2c1.1,0,1.4,0,2.4,0.3l0-7
		c8.3-4.3,15-13.6,15-23.7c0-10.4-6.1-19.4-15-23.5l-0.1-7.3c-1,0.3-2.2,0.3-3.3,0.3c-6.2,0-11.2-5-11.2-11.2c0-0.6,0.1-1.2,0.1-1.8
		l-6.7,0c-4.1-8.8-13-14.7-23.4-14.7c-10.2,0-19,6.1-23.3,14.6L41.6,59.9z"/>
	<path style="clip-path:url(#SVGID_00000056386975255053173940000007577277379598521738_);fill:#434867;" d="M64.9,98.5
		c-0.2,1.2-1.1,2.3-2.2,2.8c-0.7,0.3-1.9,0.5-3.1,0.5c-0.6,0-1.7,0.1-1.8-0.3c0-0.5,2.4-0.2,3.6-0.7c1.5-0.6,1.9-1.9,1.9-3.3
		c0-2-1.5-3.1-2.6-3.3c-1-0.2-3-0.2-3.9-0.1c-0.2,0-0.7,0.1-0.7,0.4v14.1c0.2,0.7,2.3,0.2,2.5,0.6c0.1,0.1,0,0.2,0,0.4h-6.9
		c0-0.2,0-0.4,0.1-0.4c0.2-0.2,2.3,0.2,2.3-0.5c0-3.4,0-9.7,0-14c0-0.5-0.5-0.5-0.5-0.5c-0.5,0-2.4,0-2.4-0.4s0.4-0.5,0.7-0.5
		c2.7,0,5.2,0,7.1,0c1.4,0,4,0,5.2,1.9C64.7,95.8,65.2,97,64.9,98.5"/>
	<path style="clip-path:url(#SVGID_00000056386975255053173940000007577277379598521738_);fill:#434867;" d="M73.8,97.9
		c0,0-0.1,0.3,0,0.4c0.7,0,1.4-0.1,1.6,0.5c0.1,0.2,0,0.9,0,0.9l0,8.1c0,0,0,0.4-0.1,0.6c-0.2,0.6-0.6,0.7-1.3,0.7
		c0,0-0.1,0.4,0.1,0.4c3.3,0,5.7,0,8.8,0l0.2-2.8h-0.4c-0.1,0.7-0.5,1.9-0.7,1.9c-1.5,0.1-2.9,0.1-4.9,0c0-1.9,0-2.8,0-4.7l3.4,0
		c0.5,0,0.5,0.9,0.6,1.6c0.2-0.1,0.6,0.2,0.6-0.1c0-1.8,0-2.2,0-3.8h-0.4c-0.1,0.4-0.2,1.1-0.7,1.3c-1.3,0-1.9,0-3.5,0
		c0-1.8,0-2.3,0-4.5c1.6,0,3.2,0,4.3,0c0.5,0,0.2,1.3,0.7,1.7c0.1,0,0.4,0.1,0.4-0.1c0-0.9,0.2-2.5,0.2-2.5H73.8z"/>
	<path style="clip-path:url(#SVGID_00000056386975255053173940000007577277379598521738_);fill:#434867;" d="M71.3,97.8
		c0,0.2,0.1,0.3,0,0.4c-0.2,0.1-1.3,0-1.4,0.6c0,2.7,0,9.8,0,9.8c0,0.7,1.1,0.3,1.5,0.5c0.1,0.1,0.1,0.2,0.1,0.4c-0.8,0-4.8,0-4.8,0
		c0-0.2,0-0.3,0.1-0.4c0.4-0.2,1.3,0.1,1.3-0.6c0-3.9,0-6.3,0-9.8c-0.1-0.5-1-0.4-1.5-0.5c-0.1,0,0-0.4,0-0.4H71.3z"/>
	<path style="clip-path:url(#SVGID_00000056386975255053173940000007577277379598521738_);fill:#434867;" d="M94.1,100.4
		c-0.2,0.1-0.5,0.1-0.5-0.1c-0.2-0.8-0.1-1-0.3-1.6h-3.1c0,4.5,0,6.2,0,10.1c0,0.4,1,0.2,1.5,0.4c0.1,0.1,0.1,0.2,0.1,0.4
		c-0.8,0-4.8,0-4.8,0c0-0.2,0-0.3,0.1-0.4c0.3-0.2,1.4,0.1,1.4-0.4c0-2.5,0-10.1,0-10.1l-3.1,0c-0.1,0.4-0.3,1.1-0.4,1.7
		c0,0.1-0.4,0.1-0.4,0c0-1,0-2.5,0-2.5s6.5,0,9.6,0V100.4z"/>
	<path style="clip-path:url(#SVGID_00000056386975255053173940000007577277379598521738_);fill:#434867;" d="M115,115
		c-7.6,0.3-11.6-6.5-15.4-11.5c-0.1,0,0-0.2,0-0.2c1.1,0.1,2.2-0.2,3-0.7c0.6-0.5,1.1-1.6,0.7-2.6c-0.2-0.6-1-1.1-1.3-1.2
		c-0.8-0.2-2-0.2-2.9-0.1c0,2,0,9.9,0,9.9c0,0.7,1.3,0.4,1.4,0.6c0.1,0.1,0.1,0.3,0.1,0.4h-4.7c0-0.2-0.1-0.3,0.1-0.4
		c0.4-0.1,1.4,0.1,1.4-0.5l0-9.6c-0.1-0.9-1.2-0.4-1.6-0.8c-0.1-0.1,0-0.4,0-0.4c3.6,0.1,8.3-0.5,9.2,1.6c0.4,0.9,0.2,2.1-0.5,2.8
		c-0.8,0.8-1.7,1.2-2.8,1.6c3.2,4.6,6.8,9.9,12.7,10.3c4.4,0.3,7.5-2.7,8.7-4c0.4-0.4,0.5-0.5,0.6-0.5c0.1,0,0,0.2-0.1,0.4
		C122.7,111.4,118.9,114.8,115,115"/>
	<path style="clip-path:url(#SVGID_00000056386975255053173940000007577277379598521738_);fill:#434867;" d="M36.8,105.1
		c0.7-1.8,1.3-3.2,2-4.8l2.1,4.8L36.8,105.1z M45.4,109.6c0-0.2,0-0.4-0.1-0.4c-0.3-0.1-0.8-0.1-1-0.4c0,0-0.1-0.2-0.1-0.2
		c-1.2-2.8-4.7-10.7-4.7-10.7H39c-1.6,3.8-3.2,7.1-5.1,10.9c-0.2,0.5-1,0.3-1.3,0.5c-0.1,0.1-0.1,0.2-0.1,0.4c1.2,0,2.2,0,4.2,0
		c0-0.2,0-0.3-0.1-0.4c-0.2-0.2-1.5,0.1-1.4-0.4c0.5-1.3,0.8-1.9,1.3-3h4.6c0.4,0.9,0.8,1.8,1.2,2.8c0.2,0.6-0.8,0.5-1.3,0.6
		c-0.1,0-0.1,0.2-0.1,0.4H45.4z"/>
	<path style="clip-path:url(#SVGID_00000056386975255053173940000007577277379598521738_);fill:#434867;" d="M111.8,105.1
		c0.7-1.8,1.3-3.2,2-4.8l2.1,4.8L111.8,105.1z M120.3,109.6c0-0.2,0-0.4-0.1-0.4c-0.3-0.1-0.8-0.1-1-0.4c0,0-0.1-0.2-0.1-0.2
		c-1.2-2.8-4.7-10.7-4.7-10.7H114c-1.6,3.8-3.2,7.1-5.1,10.9c-0.2,0.5-1,0.3-1.3,0.5c-0.1,0.1-0.1,0.2-0.1,0.4c1.2,0,2.2,0,4.2,0
		c0-0.2,0-0.3-0.1-0.4c-0.2-0.2-1.5,0.1-1.4-0.4c0.5-1.3,0.8-1.9,1.3-3h4.6c0.4,0.9,0.8,1.8,1.2,2.8c0.2,0.6-0.8,0.5-1.3,0.6
		c-0.1,0-0.1,0.2-0.1,0.4H120.3z"/>
	<path style="clip-path:url(#SVGID_00000056386975255053173940000007577277379598521738_);fill:#434867;" d="M49.1,109.6
		c-0.1,0.1-0.4,0.3-0.6,0.6c-0.3,0.3-0.6,0.6-0.9,0.9c-1.7,1.4-3.4,2.5-6.2,2.8c-4.3,0.5-6.9-0.9-9.8-2.5c-1.6-0.9-2.2-1.3-2.5-1.6
		c-0.3-0.3-0.3-0.8-0.3-0.8l-0.2-13.6c0.2-1.2,1.3-0.9,1.8-0.9c0.2,0,0.5-0.6-0.1-0.6c-1.1,0-0.5,0-5,0c-0.7,0-1.1,0-1,0.4
		c0,0.2,0.2,0.3,0.9,0.3c1.2,0,1.5-0.1,1.6,0.8l0.1,13.7c-0.1,1.3-1.6,0.8-2.5,1c-0.3,0.2-0.2,0.6,0.1,0.8c1.5-0.2,3-0.3,4.4,0.1
		c0.4,0.1,2.1,1.2,4.2,2.3c2.3,1.2,5.3,1.7,7.6,1.5c2-0.2,4-0.7,5.9-2C48,111.7,49.7,109.3,49.1,109.6"/>
	<path style="clip-path:url(#SVGID_00000056386975255053173940000007577277379598521738_);fill:#434867;" d="M103.7,113.2
		c-0.1,0-0.1-0.1-0.2-0.1c0,0-0.1,0-0.2-0.1c-0.1,0-0.3-0.1-0.5-0.1c-0.3,0-0.5,0.1-0.7,0.2c-0.2,0.1-0.2,0.3-0.2,0.5
		c0,0.1,0,0.3,0.1,0.4c0.1,0.1,0.2,0.2,0.4,0.3l0.5,0.2c0.1,0,0.2,0.1,0.2,0.2s0.1,0.1,0.1,0.2c0,0.1,0,0.2-0.1,0.2
		c-0.1,0.1-0.2,0.1-0.3,0.1c-0.1,0-0.3,0-0.4-0.1c0,0-0.1,0-0.1-0.1c0,0-0.1-0.1-0.2-0.1l-0.2,0.3c0.1,0.1,0.2,0.1,0.2,0.1
		c0,0,0.1,0,0.2,0.1c0.1,0.1,0.3,0.1,0.5,0.1c0.3,0,0.5-0.1,0.7-0.2c0.2-0.1,0.2-0.3,0.2-0.5c0-0.1,0-0.1,0-0.2
		c0-0.1-0.1-0.1-0.1-0.2c0-0.1-0.1-0.1-0.2-0.2c-0.1-0.1-0.2-0.1-0.3-0.2c-0.1-0.1-0.2-0.1-0.3-0.1c-0.1,0-0.1-0.1-0.2-0.1
		c0,0-0.1-0.1-0.1-0.1c0,0,0,0-0.1-0.1c0,0,0-0.1,0-0.1c0-0.1,0-0.2,0.1-0.2c0.1-0.1,0.2-0.1,0.4-0.1c0.1,0,0.1,0,0.2,0
		c0.1,0,0.1,0,0.2,0c0.1,0,0.1,0,0.2,0.1c0,0,0.1,0.1,0.2,0.1L103.7,113.2z M101.9,115.5v-0.3h-1.2V113h-0.4v2.5H101.9z M99.1,114
		C99.1,114.1,99,114.1,99.1,114c-0.1,0.1-0.1,0.1-0.2,0.1c0,0-0.1,0-0.1,0c0,0-0.1,0-0.2,0h-0.4v-0.8h0.4c0.1,0,0.1,0,0.2,0
		c0,0,0.1,0,0.1,0c0,0,0.1,0,0.1,0c0,0,0,0,0.1,0c0.1,0.1,0.2,0.2,0.2,0.3C99.2,113.9,99.2,114,99.1,114 M99.8,115.5l-0.7-1.1
		c0.2,0,0.3-0.1,0.4-0.2c0.1-0.1,0.2-0.3,0.2-0.5c0-0.2-0.1-0.4-0.2-0.5c-0.2-0.1-0.4-0.2-0.7-0.2h-0.8v2.5h0.4v-1h0.4l0.7,1H99.8z
		 M97,113h-0.4v2.5H97V113z M95.7,114.4h-0.4v0.8c-0.1,0-0.2,0-0.3,0c-0.1,0-0.1,0-0.2,0c-0.2,0-0.3,0-0.5-0.1
		c-0.1-0.1-0.3-0.1-0.4-0.2c-0.1-0.1-0.2-0.2-0.2-0.3c-0.1-0.1-0.1-0.3-0.1-0.4c0-0.1,0-0.3,0.1-0.4c0.1-0.1,0.1-0.2,0.2-0.3
		c0.1-0.1,0.2-0.2,0.3-0.2c0.1,0,0.3-0.1,0.4-0.1c0.1,0,0.2,0,0.3,0c0.1,0,0.2,0.1,0.3,0.1c0,0,0.1,0,0.2,0.1l0.2-0.3
		c-0.1,0-0.2-0.1-0.2-0.1c0,0-0.1,0-0.2-0.1c-0.1,0-0.2,0-0.3,0c-0.1,0-0.2,0-0.3,0c-0.2,0-0.4,0-0.6,0.1c-0.2,0.1-0.3,0.2-0.5,0.3
		c-0.1,0.1-0.2,0.3-0.3,0.4c-0.1,0.2-0.1,0.3-0.1,0.5c0,0.2,0,0.4,0.1,0.5c0.1,0.2,0.2,0.3,0.3,0.4c0.1,0.1,0.3,0.2,0.5,0.3
		c0.2,0.1,0.4,0.1,0.6,0.1c0.1,0,0.2,0,0.4,0c0.1,0,0.3,0,0.4-0.1c0,0,0.1,0,0.1,0c0,0,0.1,0,0.1,0V114.4z M91.4,114
		C91.4,114.1,91.4,114.1,91.4,114c-0.1,0.1-0.1,0.1-0.2,0.1c0,0-0.1,0-0.1,0c0,0-0.1,0-0.2,0h-0.4v-0.8H91c0.1,0,0.1,0,0.2,0
		c0,0,0.1,0,0.1,0c0,0,0.1,0,0.1,0c0,0,0,0,0.1,0c0.1,0.1,0.2,0.2,0.2,0.3C91.6,113.9,91.5,114,91.4,114 M92.1,115.5l-0.7-1.1
		c0.2,0,0.3-0.1,0.4-0.2c0.1-0.1,0.2-0.3,0.2-0.5c0-0.2-0.1-0.4-0.2-0.5c-0.2-0.1-0.4-0.2-0.7-0.2h-0.8v2.5h0.4v-1H91l0.7,1H92.1z
		 M89.1,114.6c0,0.1-0.1,0.2-0.2,0.3c-0.1,0.1-0.2,0.2-0.3,0.2c-0.1,0-0.2,0.1-0.4,0.1s-0.3,0-0.4-0.1c-0.1,0-0.2-0.1-0.3-0.2
		c-0.1-0.1-0.2-0.2-0.2-0.3c-0.1-0.1-0.1-0.2-0.1-0.4s0-0.3,0.1-0.4c0-0.1,0.1-0.2,0.2-0.3c0.1-0.1,0.2-0.2,0.3-0.2
		c0.1,0,0.2-0.1,0.4-0.1s0.3,0,0.4,0.1c0.1,0,0.2,0.1,0.3,0.2c0.1,0.1,0.2,0.2,0.2,0.3c0,0.1,0.1,0.2,0.1,0.4S89.1,114.5,89.1,114.6
		 M89.5,113.7c-0.1-0.2-0.2-0.3-0.3-0.4c-0.1-0.1-0.3-0.2-0.4-0.3c-0.2-0.1-0.4-0.1-0.6-0.1c-0.2,0-0.4,0-0.6,0.1
		c-0.2,0.1-0.3,0.2-0.4,0.3c-0.1,0.1-0.2,0.3-0.3,0.4c-0.1,0.2-0.1,0.3-0.1,0.5s0,0.4,0.1,0.5c0.1,0.2,0.2,0.3,0.3,0.4
		c0.1,0.1,0.3,0.2,0.4,0.3c0.2,0.1,0.4,0.1,0.6,0.1c0.2,0,0.4,0,0.6-0.1s0.3-0.2,0.4-0.3c0.1-0.1,0.2-0.3,0.3-0.4
		c0.1-0.2,0.1-0.3,0.1-0.5S89.6,113.9,89.5,113.7 M86.6,113.3V113H85v2.5h0.4v-1.1h1v-0.3h-1v-0.8H86.6z M83.6,115.5v-0.3h-1.2V113
		H82v2.5H83.6z M80.9,114.6c0,0.1-0.1,0.2-0.2,0.3c-0.1,0.1-0.2,0.2-0.3,0.2c-0.1,0-0.2,0.1-0.4,0.1c-0.1,0-0.3,0-0.4-0.1
		c-0.1,0-0.2-0.1-0.3-0.2c-0.1-0.1-0.2-0.2-0.2-0.3c0-0.1-0.1-0.2-0.1-0.4s0-0.3,0.1-0.4c0-0.1,0.1-0.2,0.2-0.3
		c0.1-0.1,0.2-0.2,0.3-0.2c0.1,0,0.2-0.1,0.4-0.1c0.1,0,0.3,0,0.4,0.1c0.1,0,0.2,0.1,0.3,0.2c0.1,0.1,0.2,0.2,0.2,0.3
		c0,0.1,0.1,0.2,0.1,0.4S81,114.5,80.9,114.6 M81.3,113.7c-0.1-0.2-0.2-0.3-0.3-0.4c-0.1-0.1-0.3-0.2-0.4-0.3
		c-0.2-0.1-0.4-0.1-0.6-0.1c-0.2,0-0.4,0-0.6,0.1c-0.2,0.1-0.3,0.2-0.4,0.3c-0.1,0.1-0.2,0.3-0.3,0.4c-0.1,0.2-0.1,0.3-0.1,0.5
		s0,0.4,0.1,0.5c0.1,0.2,0.2,0.3,0.3,0.4c0.1,0.1,0.3,0.2,0.4,0.3c0.2,0.1,0.4,0.1,0.6,0.1c0.2,0,0.4,0,0.6-0.1
		c0.2-0.1,0.3-0.2,0.4-0.3c0.1-0.1,0.2-0.3,0.3-0.4c0.1-0.2,0.1-0.3,0.1-0.5S81.4,113.9,81.3,113.7 M77.7,114.6
		c0,0.1-0.1,0.2-0.2,0.3c-0.1,0.1-0.2,0.2-0.3,0.2c-0.1,0-0.2,0.1-0.4,0.1c-0.1,0-0.3,0-0.4-0.1c-0.1,0-0.2-0.1-0.3-0.2
		c-0.1-0.1-0.2-0.2-0.2-0.3c0-0.1-0.1-0.2-0.1-0.4s0-0.3,0.1-0.4c0-0.1,0.1-0.2,0.2-0.3c0.1-0.1,0.2-0.2,0.3-0.2
		c0.1,0,0.2-0.1,0.4-0.1c0.1,0,0.3,0,0.4,0.1c0.1,0,0.2,0.1,0.3,0.2c0.1,0.1,0.2,0.2,0.2,0.3c0,0.1,0.1,0.2,0.1,0.4
		S77.8,114.5,77.7,114.6 M78.1,113.7c-0.1-0.2-0.2-0.3-0.3-0.4c-0.1-0.1-0.3-0.2-0.4-0.3c-0.2-0.1-0.4-0.1-0.6-0.1
		c-0.2,0-0.4,0-0.6,0.1c-0.2,0.1-0.3,0.2-0.4,0.3c-0.1,0.1-0.2,0.3-0.3,0.4c-0.1,0.2-0.1,0.3-0.1,0.5s0,0.4,0.1,0.5
		c0.1,0.2,0.2,0.3,0.3,0.4c0.1,0.1,0.3,0.2,0.4,0.3c0.2,0.1,0.4,0.1,0.6,0.1c0.2,0,0.4,0,0.6-0.1c0.2-0.1,0.3-0.2,0.4-0.3
		c0.1-0.1,0.2-0.3,0.3-0.4c0.1-0.2,0.1-0.3,0.1-0.5S78.2,113.9,78.1,113.7 M74.8,115.5V113h-0.4v1.1h-1.6V113h-0.4v2.5h0.4v-1.1h1.6
		v1.1H74.8z M72,113.2c-0.1-0.1-0.3-0.1-0.4-0.2c-0.1,0-0.3-0.1-0.4-0.1c-0.2,0-0.4,0-0.6,0.1c-0.2,0.1-0.3,0.2-0.4,0.3
		c-0.1,0.1-0.2,0.3-0.3,0.4c-0.1,0.2-0.1,0.3-0.1,0.5c0,0.2,0,0.4,0.1,0.5c0.1,0.2,0.2,0.3,0.3,0.4c0.1,0.1,0.3,0.2,0.5,0.3
		c0.2,0.1,0.4,0.1,0.6,0.1c0.1,0,0.2,0,0.4,0c0.1,0,0.2-0.1,0.4-0.1l-0.1-0.3c-0.1,0-0.1,0.1-0.1,0.1s-0.1,0-0.1,0c0,0-0.1,0-0.1,0
		c0,0-0.1,0-0.2,0c-0.2,0-0.3,0-0.5-0.1c-0.1,0-0.2-0.1-0.3-0.2c-0.1-0.1-0.2-0.2-0.2-0.3c-0.1-0.1-0.1-0.3-0.1-0.4
		c0-0.1,0-0.3,0.1-0.4c0-0.1,0.1-0.2,0.2-0.3c0.1-0.1,0.2-0.1,0.3-0.2c0.1,0,0.2-0.1,0.4-0.1c0.1,0,0.1,0,0.2,0c0.1,0,0.1,0,0.2,0
		c0,0,0.1,0,0.1,0.1c0,0,0.1,0,0.1,0.1L72,113.2z M69.4,113.2c-0.1,0-0.1-0.1-0.2-0.1c0,0-0.1,0-0.2-0.1c-0.1,0-0.3-0.1-0.5-0.1
		c-0.3,0-0.5,0.1-0.7,0.2c-0.2,0.1-0.2,0.3-0.2,0.5c0,0.1,0,0.3,0.1,0.4c0.1,0.1,0.2,0.2,0.4,0.3l0.5,0.2c0.1,0,0.2,0.1,0.2,0.2
		c0,0.1,0.1,0.1,0.1,0.2c0,0.1,0,0.2-0.1,0.2c-0.1,0.1-0.2,0.1-0.3,0.1c-0.1,0-0.3,0-0.4-0.1c0,0-0.1,0-0.1-0.1c0,0-0.1-0.1-0.2-0.1
		l-0.2,0.3c0.1,0.1,0.2,0.1,0.2,0.1c0,0,0.1,0,0.2,0.1c0.1,0.1,0.3,0.1,0.5,0.1c0.3,0,0.5-0.1,0.7-0.2c0.2-0.1,0.2-0.3,0.2-0.5
		c0-0.1,0-0.1,0-0.2c0-0.1-0.1-0.1-0.1-0.2c0-0.1-0.1-0.1-0.2-0.2c-0.1-0.1-0.2-0.1-0.3-0.2c-0.1-0.1-0.2-0.1-0.3-0.1
		c-0.1,0-0.1-0.1-0.2-0.1c0,0-0.1-0.1-0.1-0.1c0,0,0,0-0.1-0.1c0,0,0-0.1,0-0.1c0-0.1,0-0.2,0.1-0.2c0.1-0.1,0.2-0.1,0.4-0.1
		c0.1,0,0.1,0,0.2,0c0.1,0,0.1,0,0.2,0c0.1,0,0.1,0,0.2,0.1c0,0,0.1,0.1,0.2,0.1L69.4,113.2z M66,113h-0.4v2.5H66V113z M64.8,113
		C64.8,113,64.8,113,64.8,113c0-0.1,0-0.1,0-0.1c0,0,0,0,0-0.1c0,0,0,0,0-0.1c0-0.1,0-0.1,0-0.1c0,0,0-0.1,0-0.1h-0.2l-0.1,0.1
		c-0.1,0.1-0.1,0.2-0.1,0.3c0,0.1-0.1,0.1-0.1,0.2c0,0.1,0,0.2,0,0.2c0,0.2,0.1,0.3,0.2,0.3c0,0,0.1,0,0.1,0c0,0,0.1,0,0.1-0.1
		L64.8,113z M64,113h-0.4v2.5H64V113z M62.3,114.5h-0.9l0.4-1.1L62.3,114.5z M63.1,115.5l-1-2.6h-0.4l-1,2.6h0.4l0.3-0.7h1.1
		l0.3,0.7H63.1z M60.9,113h-0.4l-0.8,2l-0.4-1l0.4-1h-0.4l-0.2,0.6l-0.3-0.6h-0.4l0.4,1l-0.4,0.9l-0.8-2h-0.4l1.1,2.6h0.2l0.5-1.1
		l0.5,1.1h0.2L60.9,113z M56.8,114.5H56l0.4-1.1L56.8,114.5z M57.6,115.5l-1-2.6h-0.4l-1,2.6h0.4l0.3-0.7h1.1l0.3,0.7H57.6z
		 M54.7,115.5V113h-0.4v1.1h-1.6V113h-0.4v2.5h0.4v-1.1h1.6v1.1H54.7z"/>
</g>
</svg>
