<svg xmlns="http://www.w3.org/2000/svg" width="24" height="24" viewBox="0 0 24 24"><path d="M887.335,821.94a1.44,1.44,0,1,1-1.44-1.44A1.44,1.44,0,0,1,887.335,821.94Zm-7.845,10.4a4,4,0,1,1,4-4A4,4,0,0,1,879.49,832.345Zm0-10.162a6.163,6.163,0,1,0,6.162,6.163A6.163,6.163,0,0,0,879.49,822.183Zm0-3.675c3.2,0,3.583.012,4.849.07a6.639,6.639,0,0,1,2.228.413,3.971,3.971,0,0,1,2.277,2.278,6.627,6.627,0,0,1,.414,2.228c.057,1.265.07,1.645.07,4.849s-.013,3.584-.07,4.849a6.633,6.633,0,0,1-.414,2.228,3.971,3.971,0,0,1-2.277,2.278,6.666,6.666,0,0,1-2.228.413c-1.266.058-1.645.07-4.849.07s-3.584-.012-4.85-.07a6.665,6.665,0,0,1-2.228-.413,3.971,3.971,0,0,1-2.277-2.278,6.631,6.631,0,0,1-.414-2.228c-.057-1.266-.07-1.645-.07-4.849s.013-3.584.07-4.849a6.626,6.626,0,0,1,.414-2.228,3.971,3.971,0,0,1,2.277-2.278,6.638,6.638,0,0,1,2.228-.413C875.906,818.52,876.285,818.508,879.49,818.508Zm0-2.162c-3.259,0-3.668.013-4.948.072a8.791,8.791,0,0,0-2.913.558,6.137,6.137,0,0,0-3.509,3.509,8.791,8.791,0,0,0-.558,2.913c-.059,1.28-.072,1.689-.072,4.948s.013,3.667.072,4.947a8.791,8.791,0,0,0,.558,2.913,6.143,6.143,0,0,0,3.509,3.51,8.824,8.824,0,0,0,2.913.557c1.28.059,1.689.073,4.948.073s3.667-.014,4.947-.073a8.819,8.819,0,0,0,2.913-.557,6.148,6.148,0,0,0,3.51-3.51,8.819,8.819,0,0,0,.557-2.913c.059-1.28.073-1.689.073-4.947s-.014-3.668-.073-4.948a8.819,8.819,0,0,0-.557-2.913,6.142,6.142,0,0,0-3.51-3.509,8.791,8.791,0,0,0-2.913-.558C883.157,816.359,882.749,816.346,879.49,816.346Z" transform="translate(-867.49 -816.346)" fill="#fff"/></svg>