<svg xmlns="http://www.w3.org/2000/svg" width="150.386" height="18.401" viewBox="0 0 150.386 18.401"><g transform="translate(-536.021 -741.403)"><path d="M541.663,751.744a1.844,1.844,0,0,1-1.758-1.479,1.748,1.748,0,0,1,1.418-2.127l2.628-.525.416,2.078-1.1.22L543,749.2l-1.283.256a.426.426,0,0,0-.342.514.414.414,0,0,0,.388.355l1.678.122a1.811,1.811,0,0,1,1.747,1.43,1.783,1.783,0,0,1-1.418,2.127l-2.872.575-.415-2.078,1.063-.214.3.7,1.528-.305a.427.427,0,0,0,.343-.513.444.444,0,0,0-.413-.35Z" fill="#fff"/><path d="M550.144,750.846a1.815,1.815,0,0,0-1.739-1.39l-1.678-.123a.412.412,0,0,1-.388-.354.425.425,0,0,1,.342-.513l1.284-.257.268.709,1.1-.22-.415-2.078-2.629.526a1.747,1.747,0,0,0-1.417,2.126,1.844,1.844,0,0,0,1.757,1.479l1.643.078a.447.447,0,0,1,.414.351.427.427,0,0,1-.343.513l-1.528.306-.3-.7-1.064.212.415,2.079,2.873-.575a1.808,1.808,0,0,0,.949-.505,1.332,1.332,0,0,1-.1-.312A1.31,1.31,0,0,1,550.144,750.846Z" fill="#fff"/><path d="M551.539,751.8a.691.691,0,1,1-.813-.543A.69.69,0,0,1,551.539,751.8Z" fill="#fff"/><path d="M536.021,750.6a9.2,9.2,0,0,1,9.2-9.2h0a9.2,9.2,0,0,1,9.2,9.2h0a9.2,9.2,0,0,1-9.2,9.2h0a9.2,9.2,0,0,1-9.2-9.2Zm3.447-5.754a8.107,8.107,0,0,0-2.383,5.754h0a8.106,8.106,0,0,0,2.383,5.754h0a8.115,8.115,0,0,0,5.754,2.383h0a8.111,8.111,0,0,0,5.753-2.383h0a8.107,8.107,0,0,0,2.384-5.754h0a8.108,8.108,0,0,0-2.384-5.754h0a8.107,8.107,0,0,0-5.753-2.383h0a8.111,8.111,0,0,0-5.754,2.383Z" fill="#fff"/><path d="M563.545,746.583a2.484,2.484,0,0,1,0,3.522,2.8,2.8,0,0,1-1.936.654h-1.838v3.1h-.962v-7.931h2.8A2.8,2.8,0,0,1,563.545,746.583Zm-.716,2.9a1.689,1.689,0,0,0,0-2.272,2.054,2.054,0,0,0-1.363-.378h-1.7v3.028h1.7A2.054,2.054,0,0,0,562.829,749.48Z" fill="#fff"/><path d="M570.221,748.56a3.791,3.791,0,0,1,0,4.591,3.157,3.157,0,0,1-4.267,0,3.787,3.787,0,0,1,0-4.591,3.16,3.16,0,0,1,4.267,0Zm-3.564.613a3,3,0,0,0,0,3.365,1.976,1.976,0,0,0,2.861,0,3,3,0,0,0,0-3.365,1.976,1.976,0,0,0-2.861,0Z" fill="#fff"/><path d="M581.03,747.851l-2.091,6.009h-.962l-1.694-4.783-1.6,4.783h-.961l-2.091-6.009H572.7l1.515,4.891,1.634-4.891h.962l1.634,4.891,1.514-4.891Z" fill="#fff"/><path d="M587.153,751.216h-4.53a2.169,2.169,0,0,0,.606,1.418,1.866,1.866,0,0,0,1.353.505,2.368,2.368,0,0,0,1.1-.228,1.182,1.182,0,0,0,.595-.661l.8.421a2.494,2.494,0,0,1-.962.973,3.121,3.121,0,0,1-1.537.337,2.779,2.779,0,0,1-2.134-.83,3.232,3.232,0,0,1-.775-2.295,3.329,3.329,0,0,1,.74-2.3,2.66,2.66,0,0,1,2.1-.829,2.742,2.742,0,0,1,1.454.373,2.394,2.394,0,0,1,.925,1.009,3.211,3.211,0,0,1,.312,1.43A4.752,4.752,0,0,1,587.153,751.216Zm-3.924-2.175a2.145,2.145,0,0,0-.594,1.322h3.641a2.209,2.209,0,0,0-.553-1.316,1.608,1.608,0,0,0-1.213-.474A1.771,1.771,0,0,0,583.229,749.041Z" fill="#fff"/><path d="M592.126,747.851l-.192.938a1.592,1.592,0,0,0-.757-.157,1.431,1.431,0,0,0-.751.223,1.65,1.65,0,0,0-.6.673,2.346,2.346,0,0,0-.234,1.087v3.245h-.961v-6.009h.781l.132.986a1.913,1.913,0,0,1,1.923-1.106A1.451,1.451,0,0,1,592.126,747.851Z" fill="#fff"/><path d="M598.2,751.216h-4.53a2.169,2.169,0,0,0,.606,1.418,1.865,1.865,0,0,0,1.353.505,2.368,2.368,0,0,0,1.1-.228,1.186,1.186,0,0,0,.595-.661l.8.421a2.494,2.494,0,0,1-.962.973,3.121,3.121,0,0,1-1.537.337,2.779,2.779,0,0,1-2.134-.83,3.227,3.227,0,0,1-.775-2.295,3.333,3.333,0,0,1,.739-2.3,2.661,2.661,0,0,1,2.1-.829,2.743,2.743,0,0,1,1.455.373,2.4,2.4,0,0,1,.925,1.009,3.212,3.212,0,0,1,.312,1.43A4.752,4.752,0,0,1,598.2,751.216Zm-3.924-2.175a2.14,2.14,0,0,0-.594,1.322h3.641a2.209,2.209,0,0,0-.553-1.316,1.609,1.609,0,0,0-1.214-.474A1.77,1.77,0,0,0,594.271,749.041Z" fill="#fff"/><path d="M605.058,745.088v8.772h-.842l-.06-1.045a2.014,2.014,0,0,1-.811.847,2.429,2.429,0,0,1-1.244.319,2.537,2.537,0,0,1-2-.836,3.916,3.916,0,0,1,0-4.579,2.54,2.54,0,0,1,2-.835,2.406,2.406,0,0,1,1.184.289,2.1,2.1,0,0,1,.811.769v-3.7Zm-1.473,7.45a2.4,2.4,0,0,0,.511-1.61v-.144a2.409,2.409,0,0,0-.511-1.611,1.715,1.715,0,0,0-1.376-.6,1.687,1.687,0,0,0-1.382.618,3,3,0,0,0,0,3.329,1.685,1.685,0,0,0,1.382.619A1.712,1.712,0,0,0,603.585,752.538Z" fill="#fff"/><path d="M615.627,748.566a3.921,3.921,0,0,1,0,4.579,2.537,2.537,0,0,1-2,.836,2.424,2.424,0,0,1-1.244-.319,2.01,2.01,0,0,1-.812-.847l-.059,1.045h-.842v-8.772h.962v3.7a2.1,2.1,0,0,1,.811-.769,2.4,2.4,0,0,1,1.184-.289A2.54,2.54,0,0,1,615.627,748.566Zm-.728,3.954a3,3,0,0,0,0-3.329,1.687,1.687,0,0,0-1.382-.618,1.715,1.715,0,0,0-1.376.6,2.409,2.409,0,0,0-.51,1.611v.144a2.4,2.4,0,0,0,.51,1.61,1.712,1.712,0,0,0,1.376.6A1.685,1.685,0,0,0,614.9,752.52Z" fill="#fff"/><path d="M619.953,754.87a3.027,3.027,0,0,1-.782,1.22,1.708,1.708,0,0,1-1.118.354,2.1,2.1,0,0,1-.762-.12,1.552,1.552,0,0,1-.56-.384l.337-.818a1.133,1.133,0,0,0,.974.481.979.979,0,0,0,.619-.211,1.7,1.7,0,0,0,.474-.763l.312-.781-2.511-6h1.093l1.5,3.918.373,1.07.433-1.19,1.406-3.8h1.033Z" fill="#fff"/><path d="M629.381,747.136a.728.728,0,0,0-.271.589.665.665,0,0,0,.33.583,6.072,6.072,0,0,0,1.527.511,4.293,4.293,0,0,1,1.856.883,2.179,2.179,0,0,1,.662,1.719,2.27,2.27,0,0,1-.847,1.832,3.381,3.381,0,0,1-2.23.7,5.16,5.16,0,0,1-3.593-1.479l1.117-1.37a3.98,3.98,0,0,0,2.512,1.19,1.318,1.318,0,0,0,.812-.223.715.715,0,0,0,.294-.6.7.7,0,0,0-.313-.6,4.1,4.1,0,0,0-1.237-.451,5.375,5.375,0,0,1-2.146-.907,2.143,2.143,0,0,1-.679-1.755,2.176,2.176,0,0,1,.86-1.845,3.458,3.458,0,0,1,2.145-.649,5.165,5.165,0,0,1,1.682.289,4.511,4.511,0,0,1,1.466.817l-.949,1.37a3.7,3.7,0,0,0-2.259-.829A1.129,1.129,0,0,0,629.381,747.136Z" fill="#fff"/><path d="M641.361,750.627a3.193,3.193,0,0,1-.973,2.368,3.589,3.589,0,0,1-4.891,0,3.374,3.374,0,0,1,0-4.741,3.576,3.576,0,0,1,4.891,0A3.212,3.212,0,0,1,641.361,750.627Zm-5.023,0a1.854,1.854,0,0,0,.451,1.292,1.583,1.583,0,0,0,2.307,0,1.85,1.85,0,0,0,.451-1.292,1.871,1.871,0,0,0-.451-1.3,1.57,1.57,0,0,0-2.307,0A1.876,1.876,0,0,0,636.338,750.627Z" fill="#fff"/><path d="M644.723,747.136a.728.728,0,0,0-.271.589.666.666,0,0,0,.331.583,6.044,6.044,0,0,0,1.526.511,4.3,4.3,0,0,1,1.857.883,2.182,2.182,0,0,1,.661,1.719,2.27,2.27,0,0,1-.847,1.832,3.381,3.381,0,0,1-2.23.7,5.16,5.16,0,0,1-3.593-1.479l1.117-1.37a3.98,3.98,0,0,0,2.512,1.19,1.319,1.319,0,0,0,.812-.223.715.715,0,0,0,.294-.6.7.7,0,0,0-.313-.6,4.1,4.1,0,0,0-1.237-.451,5.375,5.375,0,0,1-2.146-.907,2.143,2.143,0,0,1-.679-1.755,2.176,2.176,0,0,1,.86-1.845,3.458,3.458,0,0,1,2.145-.649,5.165,5.165,0,0,1,1.682.289,4.489,4.489,0,0,1,1.466.817l-.949,1.37a3.7,3.7,0,0,0-2.259-.829A1.129,1.129,0,0,0,644.723,747.136Z" fill="#fff"/><path d="M650.4,746.572a1.075,1.075,0,1,1,.751.306A1.024,1.024,0,0,1,650.4,746.572Zm1.653,7.288h-1.8V747.4h1.8Z" fill="#fff"/><path d="M659.712,750.375v3.485H657.9v-3.533a2.13,2.13,0,0,0-.234-1.129.835.835,0,0,0-.758-.361,1.293,1.293,0,0,0-.925.39,1.531,1.531,0,0,0-.4,1.148v3.485h-1.8V747.4h1.8v.733a2.228,2.228,0,0,1,1.706-.841,1.858,1.858,0,0,1,1.112.36,2.363,2.363,0,0,1,.751.877,2.54,2.54,0,0,1,1-.913,2.753,2.753,0,0,1,1.269-.324,2.525,2.525,0,0,1,1.838.678,2.621,2.621,0,0,1,.7,1.966v3.929h-1.815v-3.533q0-1.49-1.093-1.49a1.294,1.294,0,0,0-.938.39A1.544,1.544,0,0,0,659.712,750.375Z" fill="#fff"/><path d="M669.38,747.287a2.69,2.69,0,0,1,2.012.943,3.336,3.336,0,0,1,.883,2.373,3.4,3.4,0,0,1-.883,2.392,2.725,2.725,0,0,1-2.067.962,2.275,2.275,0,0,1-1.9-.95v3.185h-1.8v-8.8h1.8v.721A2.675,2.675,0,0,1,669.38,747.287Zm-1.984,3.346a1.87,1.87,0,0,0,.439,1.286,1.365,1.365,0,0,0,1.063.5,1.455,1.455,0,0,0,1.094-.5,1.79,1.79,0,0,0,.469-1.279,1.934,1.934,0,0,0-.456-1.31,1.4,1.4,0,0,0-1.1-.529,1.352,1.352,0,0,0-1.075.523A1.963,1.963,0,0,0,667.4,750.633Z" fill="#fff"/><path d="M675.449,753.86h-1.8v-8.917h1.8Z" fill="#fff"/><path d="M682.785,752.923a3.615,3.615,0,0,1-2.566,1.034,3.4,3.4,0,0,1-2.433-.908,3.184,3.184,0,0,1-.962-2.434,3.141,3.141,0,0,1,.979-2.427,3.3,3.3,0,0,1,2.314-.9,3.343,3.343,0,0,1,2.265.8,2.768,2.768,0,0,1,.931,2.211v.962H678.6a1.289,1.289,0,0,0,.554.865,1.77,1.77,0,0,0,1.057.336,2.071,2.071,0,0,0,1.562-.637Zm-1.731-3.834a1.364,1.364,0,0,0-.907-.312,1.625,1.625,0,0,0-.979.324,1.239,1.239,0,0,0-.517.878h2.836A1.283,1.283,0,0,0,681.054,749.089Z" fill="#fff"/><path d="M684.6,753.65a1.073,1.073,0,1,1,.752.307A1.026,1.026,0,0,1,684.6,753.65Z" fill="#fff"/></g></svg>