<svg xmlns="http://www.w3.org/2000/svg" width="24" height="23.999" viewBox="0 0 24 23.999"><path d="M799.469,816.346h-16.1a3.949,3.949,0,0,0-3.95,3.949v16.1a3.949,3.949,0,0,0,3.95,3.949h16.1a3.949,3.949,0,0,0,3.95-3.949v-16.1A3.949,3.949,0,0,0,799.469,816.346Zm-2.326,9.062c.007.126.009.253.009.382a8.4,8.4,0,0,1-12.933,7.077,6.549,6.549,0,0,0,.7.04,5.925,5.925,0,0,0,3.67-1.265,2.955,2.955,0,0,1-2.758-2.051,2.971,2.971,0,0,0,1.334-.05,2.955,2.955,0,0,1-2.37-2.9v-.036a2.951,2.951,0,0,0,1.338.369,2.955,2.955,0,0,1-.914-3.942,8.379,8.379,0,0,0,6.088,3.087,2.855,2.855,0,0,1-.078-.672,2.956,2.956,0,0,1,5.111-2.022,5.911,5.911,0,0,0,1.875-.717,2.949,2.949,0,0,1-1.3,1.634,5.922,5.922,0,0,0,1.69-.461l.005-.007,0,0-.007,0A5.96,5.96,0,0,1,797.143,825.408Z" transform="translate(-779.419 -816.346)" fill="#fff"/></svg>